<svg width="50" height="50" viewBox="0 0 50 50" fill="none" xmlns="http://www.w3.org/2000/svg">
<g clip-path="url(#clip0_188_25)">
<path fill-rule="evenodd" clip-rule="evenodd" d="M13.5913 0.139403C12.9093 -0.187787 12.0842 0.0803349 11.7399 0.741078C11.2499 1.68137 11.0807 2.8298 11.058 3.93074C11.0348 5.05634 11.1633 6.2624 11.3689 7.40302C11.575 8.54698 11.8647 9.65773 12.18 10.6004C12.326 11.037 12.4848 11.4597 12.6526 11.8439C9.94985 14.3408 8.4245 18.5188 9.71091 22.5744C11.1661 27.1623 16.0214 31.0896 25.4713 32.4846C26.2299 32.5965 26.9376 32.0879 27.0524 31.3485C27.1674 30.6089 26.6457 29.9188 25.8871 29.8067C16.9912 28.4934 13.3791 24.9729 12.3646 21.7744C11.3198 18.4804 12.823 14.9979 15.2141 13.2771C15.8082 12.8495 15.9553 12.0435 15.549 11.4423C15.3748 11.1847 15.1049 10.6099 14.8208 9.7607C14.5466 8.94085 14.2884 7.95413 14.1046 6.9343C13.9203 5.91116 13.8166 4.88715 13.8351 3.98513C13.8401 3.74458 13.8536 3.52087 13.8747 3.31423C14.8553 3.8128 15.8762 4.36423 16.8414 4.94852C18.3373 5.85415 19.6101 6.78607 20.4023 7.66494C20.8166 8.12457 21.4956 8.25619 22.0586 7.98601C24.6552 6.74033 27.9654 6.09391 31.1478 6.09391C34.3549 6.09391 37.2257 6.74918 39.0295 7.90322C39.362 8.1159 39.7723 8.17944 40.1559 8.07769C40.5397 7.97593 40.8603 7.7187 41.0364 7.37109C41.4189 6.61699 42.4372 5.71881 43.8296 4.78267C44.6541 4.22822 45.4668 3.74864 46.209 3.31569C46.2198 3.38215 46.2304 3.45251 46.2401 3.52696C46.3385 4.28017 46.3354 5.22637 46.2626 6.267C46.1321 8.1344 45.7935 10.1164 45.5543 11.5149C45.5271 11.6736 45.5013 11.8248 45.4774 11.9674C45.4324 12.2328 45.4696 12.5051 45.584 12.7498C46.9323 15.6303 47.8081 18.9484 46.7551 21.9345C45.734 24.8291 42.7233 27.8683 35.1977 29.8378C34.6932 29.9697 34.3074 30.3665 34.1991 30.8645C34.0908 31.3628 34.2783 31.878 34.6841 32.1984C36.7998 33.8675 40.3795 38.0285 42.8774 42.833C43.5052 44.0406 43.2252 45.1039 42.4713 45.8701C41.673 46.6812 40.2872 47.1901 38.7342 46.922C35.9302 46.4383 32.7677 46.0413 29.9128 46.0413C26.4757 46.0413 21.9908 46.6187 18.1806 47.2316C16.6552 47.4772 15.3751 46.9469 14.6816 46.1656C14.0306 45.4316 13.8111 44.4 14.5125 43.2344C15.9319 40.876 17.6456 38.8071 19.385 37.6946C19.7046 37.4901 19.9236 37.1662 19.9905 36.7995C20.0575 36.4325 19.9664 36.055 19.7387 35.7557C19.2738 35.1444 18.2056 34.0576 16.4839 33.4458C14.7156 32.8172 12.3978 32.7408 9.58633 33.9731C8.24673 34.56 7.14318 34.6383 6.27076 34.4647C5.39365 34.2905 4.65345 33.8428 4.07477 33.2259C2.85778 31.9289 2.51351 30.0851 2.97992 28.9354C3.26199 28.2399 2.91245 27.4531 2.19916 27.178C1.48588 26.9031 0.678985 27.2438 0.396883 27.9393C-0.529229 30.2227 0.227026 33.1373 2.02528 35.054C2.95419 36.0441 4.2003 36.8171 5.71586 37.1185C7.23612 37.4208 8.93163 37.2293 10.7252 36.4431C12.9268 35.4784 14.4945 35.6211 15.5326 35.9902C15.8997 36.1208 16.218 36.286 16.4875 36.4593C14.7974 37.9115 13.3101 39.881 12.1168 41.864C10.8027 44.0474 11.1645 46.3411 12.581 47.9373C13.9551 49.4859 16.2289 50.2906 18.6329 49.9038C22.4217 49.2942 26.7171 48.7496 29.9128 48.7496C32.5358 48.7496 35.5179 49.1176 38.2501 49.5889C40.6614 50.0049 42.998 49.2468 44.4757 47.7451C45.9979 46.1981 46.5476 43.9022 45.3552 41.6083C43.3066 37.6686 40.5536 34.0841 38.2662 31.7634C44.7185 29.6396 48.0909 26.4752 49.3817 22.8149C50.7314 18.9883 49.645 15.033 48.2862 12.0073C48.289 11.9923 48.2915 11.9772 48.294 11.962C48.5314 10.5757 48.8937 8.46001 49.0339 6.45108C49.112 5.33269 49.1264 4.18855 48.9956 3.18518C48.8725 2.24207 48.5898 1.14637 47.8354 0.402324C47.3765 -0.0499614 46.6571 -0.130073 46.1054 0.209764C45.8471 0.369039 45.5079 0.567015 45.1207 0.793185C44.2816 1.28317 43.2158 1.90545 42.2525 2.55314C41.2592 3.22114 40.17 4.0423 39.3614 4.98175C37.0529 3.88606 34.106 3.38562 31.1478 3.38562C27.9751 3.38562 24.6202 3.96018 21.7572 5.14374C20.7718 4.24052 19.5449 3.39726 18.3065 2.64764C16.719 1.6866 15.0205 0.825116 13.5913 0.139403Z" fill="#FFFDFD"/>
</g>
<defs>
<clipPath id="clip0_188_25">
<rect width="50" height="50" fill="white"/>
</clipPath>
</defs>
</svg>
