<svg width="30" height="30" viewBox="0 0 30 30" fill="none" xmlns="http://www.w3.org/2000/svg">
<g clip-path="url(#clip0_194_82)">
<path d="M26.3521 0H3.64793C1.63646 0 0 2.16711 0 4.83073V25.1693C0 27.833 1.63646 30 3.64793 30H26.3521C28.3636 30 30 27.833 30 25.1693V4.83073C30 2.16711 28.3636 0 26.3521 0ZM24.6042 1.62147L14.9917 11.911L5.37926 1.62147H24.6042ZM25.0855 28.3785H4.89797V9.44288L14.6077 19.8008C14.8318 20.04 15.1516 20.04 15.3758 19.8008L25.0854 9.44288V28.3785H25.0855ZM28.7755 25.1692C28.7755 26.9388 27.6884 28.3784 26.3521 28.3784H26.3101V7.74863C26.3101 7.43647 26.1748 7.15209 25.9621 7.01731C25.7493 6.88245 25.4972 6.92148 25.3137 7.11725L14.9917 18.1284L4.66975 7.11725C4.48611 6.92148 4.23393 6.88245 4.02141 7.01731C3.80871 7.15209 3.67342 7.43647 3.67342 7.74863V28.3784H3.64787C2.31164 28.3785 1.22449 26.9388 1.22449 25.1693V4.83073C1.22449 3.1527 2.2023 1.77215 3.44291 1.63388L14.6069 13.5842C14.7191 13.7044 14.8554 13.7644 14.9917 13.7644C15.1281 13.7644 15.2644 13.7044 15.3766 13.5842L26.542 1.63225C27.7897 1.76106 28.7755 3.14587 28.7755 4.83065V25.1692Z" fill="#FDFCFF"/>
</g>
<defs>
<clipPath id="clip0_194_82">
<rect width="30" height="30" fill="white"/>
</clipPath>
</defs>
</svg>
