<svg width="50" height="50" viewBox="0 0 50 50" fill="none" xmlns="http://www.w3.org/2000/svg">
<g clip-path="url(#clip0_188_38)">
<path d="M43.0066 50H6.9934C5.13863 50 3.35984 49.2632 2.04832 47.9517C0.736802 46.6402 0 44.8614 0 43.0066V6.9934C0 5.13863 0.736802 3.35984 2.04832 2.04832C3.35984 0.736802 5.13863 0 6.9934 0H43.0066C44.8614 0 46.6402 0.736802 47.9517 2.04832C49.2632 3.35984 50 5.13863 50 6.9934V43.0066C50 44.8614 49.2632 46.6402 47.9517 47.9517C46.6402 49.2632 44.8614 50 43.0066 50ZM6.9934 2.79736C5.88054 2.79736 4.81326 3.23944 4.02635 4.02635C3.23944 4.81326 2.79736 5.88054 2.79736 6.9934V43.0066C2.79736 44.1195 3.23944 45.1867 4.02635 45.9736C4.81326 46.7606 5.88054 47.2026 6.9934 47.2026H43.0066C44.1195 47.2026 45.1867 46.7606 45.9736 45.9736C46.7606 45.1867 47.2026 44.1195 47.2026 43.0066V6.9934C47.2026 5.88054 46.7606 4.81326 45.9736 4.02635C45.1867 3.23944 44.1195 2.79736 43.0066 2.79736H6.9934Z" fill="white"/>
<path d="M25.0002 37.8513C22.4584 37.8485 19.9745 37.0922 17.8625 35.678C15.7504 34.2638 14.1051 32.2552 13.1344 29.906C12.1638 27.5569 11.9114 24.9727 12.4092 22.4802C12.907 19.9876 14.1325 17.6986 15.931 15.9024C17.7295 14.1063 20.0201 12.8837 22.5133 12.3892C25.0065 11.8947 27.5904 12.1504 29.9383 13.1241C32.2861 14.0979 34.2926 15.7458 35.7041 17.8597C37.1155 19.9736 37.8686 22.4584 37.868 25.0002C37.8636 28.4101 36.5059 31.6788 34.0932 34.0883C31.6805 36.4979 28.41 37.8513 25.0002 37.8513V37.8513ZM25.0002 14.9297C23.0124 14.9325 21.07 15.5243 19.4183 16.6304C17.7667 17.7365 16.4799 19.3072 15.7205 21.1442C14.9611 22.9812 14.7631 25.0021 15.1516 26.9516C15.54 28.901 16.4975 30.6917 17.9031 32.0972C19.3087 33.5028 21.0993 34.4603 23.0488 34.8488C24.9983 35.2373 27.0191 35.0393 28.8562 34.2799C30.6932 33.5205 32.2639 32.2337 33.37 30.582C34.4761 28.9304 35.0679 26.988 35.0707 25.0002C35.0707 22.3294 34.0097 19.7679 32.1211 17.8793C30.2325 15.9907 27.671 14.9297 25.0002 14.9297V14.9297Z" fill="white"/>
<path d="M39.5463 13.5446C41.2072 13.5446 42.5535 12.1982 42.5535 10.5374C42.5535 8.87662 41.2072 7.53027 39.5463 7.53027C37.8855 7.53027 36.5392 8.87662 36.5392 10.5374C36.5392 12.1982 37.8855 13.5446 39.5463 13.5446Z" fill="white"/>
</g>
<defs>
<clipPath id="clip0_188_38">
<rect width="50" height="50" fill="white"/>
</clipPath>
</defs>
</svg>
