<svg width="50" height="50" viewBox="0 0 50 50" fill="none" xmlns="http://www.w3.org/2000/svg">
<g clip-path="url(#clip0_190_51)">
<path d="M31.8178 49.9999C26.2388 49.9918 20.7597 48.52 15.9285 45.7319C11.0973 42.9437 7.08332 38.937 4.28804 34.1122C1.49277 29.2875 0.014164 23.8139 0.000101255 18.239C-0.0139614 12.6641 1.43701 7.18314 4.20791 2.34439C4.56921 1.71855 5.07104 1.18512 5.67383 0.786141C6.27663 0.387159 6.96392 0.13353 7.68154 0.0452441C8.42026 -0.0568348 9.17262 0.0143736 9.87902 0.25323C10.5854 0.492086 11.2265 0.892028 11.7514 1.42138L20.5376 10.204C20.984 10.6495 21.3382 11.1786 21.5799 11.761C21.8215 12.3434 21.9459 12.9677 21.9459 13.5982C21.9459 14.2287 21.8215 14.8529 21.5799 15.4354C21.3382 16.0178 20.984 16.5468 20.5376 16.9924L19.7119 17.8315C18.698 18.8471 18.1285 20.2232 18.1285 21.6578C18.1285 23.0924 18.698 24.4684 19.7119 25.4841L24.5263 30.2978C25.5585 31.2806 26.9296 31.8289 28.3554 31.8289C29.7812 31.8289 31.1523 31.2806 32.1845 30.2978L32.9962 29.4866C33.8982 28.5875 35.1202 28.0826 36.3943 28.0826C37.6683 28.0826 38.8903 28.5875 39.7923 29.4866L48.5786 38.2665C49.1073 38.7923 49.5068 39.4334 49.7457 40.1396C49.9847 40.8457 50.0565 41.5976 49.9557 42.3361C49.8663 43.0522 49.612 43.7377 49.2128 44.339C48.8136 44.9403 48.2803 45.441 47.6549 45.8016C42.8352 48.5635 37.3738 50.0113 31.8178 49.9999ZM8.32252 2.8003C8.22896 2.8 8.13547 2.8056 8.04262 2.81709C7.7536 2.8528 7.4768 2.95499 7.23397 3.11563C6.99113 3.27627 6.78888 3.49098 6.64309 3.7429C3.47107 9.26963 2.20737 15.6859 3.04699 22.0016C3.88661 28.3173 6.78289 34.1813 11.2889 38.6888C15.7949 43.1963 21.6601 46.0966 27.9795 46.9423C34.2989 47.788 40.7212 46.5321 46.2553 43.3682C46.5073 43.2224 46.7221 43.0202 46.8828 42.7776C47.0435 42.535 47.1459 42.2584 47.1818 41.9697C47.2246 41.6562 47.1944 41.3371 47.0934 41.0373C46.9924 40.7374 46.8234 40.465 46.5996 40.2411L37.8134 31.4613C37.627 31.2751 37.4058 31.1274 37.1623 31.0266C36.9188 30.9258 36.6578 30.8739 36.3943 30.8739C36.1307 30.8739 35.8697 30.9258 35.6262 31.0266C35.3827 31.1274 35.1615 31.2751 34.9751 31.4613L34.1634 32.2725C32.5984 33.7645 30.5184 34.5969 28.3554 34.5969C26.1923 34.5969 24.1124 33.7645 22.5473 32.2725L17.7218 27.4504C16.1853 25.9096 15.3226 23.8231 15.3226 21.648C15.3226 19.4728 16.1853 17.3864 17.7218 15.8456L18.5615 15.0065C18.7478 14.8203 18.8957 14.5992 18.9965 14.3559C19.0974 14.1125 19.1493 13.8518 19.1493 13.5884C19.1493 13.325 19.0974 13.0642 18.9965 12.8209C18.8957 12.5776 18.7478 12.3565 18.5615 12.1703L9.77244 3.39886C9.58223 3.20844 9.35619 3.05751 9.10734 2.95478C8.8585 2.85205 8.59177 2.79955 8.32252 2.8003V2.8003Z" fill="#FFFDFD"/>
</g>
<defs>
<clipPath id="clip0_190_51">
<rect width="50" height="50" fill="white"/>
</clipPath>
</defs>
</svg>
