<svg width="50" height="50" viewBox="0 0 50 50" fill="none" xmlns="http://www.w3.org/2000/svg">
<g clip-path="url(#clip0_188_44)">
<path d="M31.9162 50C31.1575 50.0028 30.4134 49.7911 29.7699 49.3892C29.1264 48.9874 28.6097 48.4118 28.2794 47.7289L20.245 31.5571C19.8589 30.779 19.2279 30.1491 18.449 29.7642L2.26829 21.7343C1.54405 21.3741 0.942914 20.8072 0.540889 20.1055C0.138865 19.4037 -0.0459873 18.5985 0.00970822 17.7916C0.0654037 16.9848 0.359146 16.2126 0.853789 15.5727C1.34843 14.9328 2.02176 14.4539 2.78863 14.1966L44.6168 0.21198C45.3368 -0.0294755 46.1099 -0.0654464 46.8492 0.108108C47.5886 0.281662 48.2649 0.657867 48.8022 1.19447C49.3395 1.73107 49.7165 2.40682 49.8909 3.14581C50.0652 3.8848 50.0301 4.65777 49.7894 5.37789L35.8019 47.1975C35.5527 47.9685 35.0765 48.6464 34.4356 49.1425C33.7947 49.6385 33.019 49.9296 32.2099 49.9776C32.1148 49.9972 32.0141 50 31.9162 50ZM45.9232 2.80473C45.7817 2.80536 45.641 2.828 45.5064 2.87185V2.87185L3.67823 16.8565C3.43617 16.9371 3.22354 17.0878 3.06737 17.2896C2.9112 17.4913 2.81853 17.7349 2.80114 17.9894C2.78375 18.2439 2.84243 18.4978 2.96971 18.7189C3.09699 18.94 3.28713 19.1182 3.51598 19.231L19.6855 27.2554C21.0169 27.9149 22.0971 28.99 22.7628 30.318L30.7916 46.4898C30.8995 46.7231 31.0772 46.9171 31.3003 47.0449C31.5233 47.1727 31.7806 47.2279 32.0365 47.2031C32.2891 47.187 32.531 47.0951 32.7307 46.9394C32.9303 46.7837 33.0783 46.5715 33.1555 46.3304L47.1429 4.50805C47.2067 4.31517 47.2241 4.10997 47.1937 3.90911C47.1633 3.70825 47.086 3.51738 46.968 3.35199C46.85 3.18661 46.6947 3.05137 46.5146 2.95726C46.3345 2.86314 46.1348 2.8128 45.9316 2.81032L45.9232 2.80473Z" fill="#FFFDFD"/>
</g>
<defs>
<clipPath id="clip0_188_44">
<rect width="50" height="50" fill="white"/>
</clipPath>
</defs>
</svg>
